<?xml version="1.0" encoding="utf-8"?>
<!-- Generator: Adobe Illustrator 23.0.2, SVG Export Plug-In . SVG Version: 6.00 Build 0)  -->
<svg version="1.1" id="Layer_1" xmlns="http://www.w3.org/2000/svg" xmlns:xlink="http://www.w3.org/1999/xlink" x="0px" y="0px"
	 viewBox="0 0 700 700" style="enable-background:new 0 0 700 700;" xml:space="preserve">
<style type="text/css">
	.st0{fill:#DEDEDE;}
</style>
<g>
	<path class="st0" d="M508.8,170.1l-15.1,407.3c-0.3,7-6.4,12.9-13.4,12.9H219.7c-7,0-13.2-5.9-13.4-12.9l-15.1-407.3
		c-0.4-11.2-9.9-20-21.1-19.6c-11.2,0.4-20,9.9-19.6,21.1l15.1,407.3c1.1,28.9,25.2,52.1,54.1,52.1h260.6
		c28.9,0,53.1-23.2,54.1-52.1l15.1-407.3c0.4-11.2-8.4-20.7-19.6-21.1C518.7,150.1,509.2,158.8,508.8,170.1L508.8,170.1z"/>
	<path class="st0" d="M333.7,252.3v276.9c0,9,7.3,16.3,16.3,16.3s16.3-7.3,16.3-16.3V252.3c0-9-7.3-16.3-16.3-16.3
		S333.7,243.3,333.7,252.3L333.7,252.3z"/>
	<path class="st0" d="M244.1,252.7l8.1,276.9c0.3,9,7.8,16.1,16.8,15.8c9-0.3,16.1-7.8,15.8-16.8l-8.1-276.9
		c-0.3-9-7.8-16.1-16.8-15.8C250.9,236.2,243.9,243.8,244.1,252.7L244.1,252.7z"/>
	<path class="st0" d="M423.3,251.8l-8.1,276.9c-0.3,9,6.8,16.5,15.8,16.8c9,0.3,16.5-6.8,16.8-15.8l8.1-276.9
		c0.3-9-6.8-16.5-15.8-16.8C431.1,235.7,423.6,242.8,423.3,251.8L423.3,251.8z"/>
	<path class="st0" d="M146.4,179h407.2c11.2,0,20.4-9.1,20.4-20.4c0-11.2-9.1-20.4-20.4-20.4H146.4c-11.2,0-20.4,9.1-20.4,20.4
		C126,169.9,135.1,179,146.4,179z"/>
	<path class="st0" d="M288.1,152l8.5-29.7c1.8-6.4,10.1-12.6,16.7-12.6h73.4c6.6,0,14.9,6.2,16.7,12.6l8.5,29.7l39.2-11.2l-8.5-29.7
		c-6.8-23.8-31-42.1-55.8-42.1h-73.4c-24.8,0-49,18.3-55.8,42.1l-8.5,29.7L288.1,152z"/>
</g>
</svg>
